{
    "asset" : {
        "generator" : "Khronos glTF Blender I/O v1.1.46",
        "version" : "2.0"
    },
    "scene" : 0,
    "scenes" : [
        {
            "name" : "Scene",
            "nodes" : [
                1
            ]
        }
    ],
    "nodes" : [
        {
            "mesh" : 0,
            "name" : "Piece"
        },
        {
            "children" : [
                0
            ],
            "name" : "Node"
        }
    ],
    "materials" : [
        {
            "emissiveFactor" : [
                0,
                0,
                0
            ],
            "name" : "Material",
            "pbrMetallicRoughness" : {
                "metallicFactor" : 0.5,
                "roughnessFactor" : 0.5
            }
        }
    ],
    "meshes" : [
        {
            "name" : "Mesh",
            "primitives" : [
                {
                    "attributes" : {
                        "POSITION" : 0,
                        "NORMAL" : 1,
                        "COLOR_0" : 2
                    },
                    "indices" : 3,
                    "material" : 0
                }
            ]
        }
    ],
    "accessors" : [
        {
            "bufferView" : 0,
            "componentType" : 5126,
            "count" : 15744,
            "max" : [
                11.00016975402832,
                45,
                13.675000190734863
            ],
            "min" : [
                -11.2504301071167,
                0.0010000000474974513,
                -13
            ],
            "type" : "VEC3"
        },
        {
            "bufferView" : 1,
            "componentType" : 5126,
            "count" : 15744,
            "type" : "VEC3"
        },
        {
            "bufferView" : 2,
            "componentType" : 5126,
            "count" : 15744,
            "type" : "VEC4"
        },
        {
            "bufferView" : 3,
            "componentType" : 5123,
            "count" : 15744,
            "type" : "SCALAR"
        }
    ],
    "bufferViews" : [
        {
            "buffer" : 0,
            "byteLength" : 188928,
            "byteOffset" : 0
        },
        {
            "buffer" : 0,
            "byteLength" : 188928,
            "byteOffset" : 188928
        },
        {
            "buffer" : 0,
            "byteLength" : 251904,
            "byteOffset" : 377856
        },
        {
            "buffer" : 0,
            "byteLength" : 31488,
            "byteOffset" : 629760
        }
    ],
    "buffers" : [
        {
            "byteLength" : 661248,
            "uri" : "data:application/octet-stream;base64,"
        }
    ]
}
