{
  "accessors": [
    {
      "bufferView": 0,
      "byteOffset": 0,
      "componentType": 5123,
      "count": 15744,
      "type": "SCALAR",
      "max": [15743],
      "min": [0]
    },
    {
      "bufferView": 1,
      "byteOffset": 0,
      "componentType": 5126,
      "count": 15744,
      "type": "VEC3",
      "max": [11.00016975402832, 13, 45],
      "min": [-11.2504301071167, -13.675000190734863, 0.0010000000474974513],
      "name": "POSITION"
    },
    {
      "bufferView": 1,
      "byteOffset": 12,
      "componentType": 5126,
      "count": 15744,
      "type": "VEC3",
      "max": [0.886274516582489, 0.886274516582489, 0.8941176533699036],
      "min": [0.8666666746139526, 0.7529411911964417, 0.5843137502670288],
      "name": "COLOR_0"
    }
  ],
  "asset": { "generator": "Aspose.3D 23.1", "version": "2.0" },
  "buffers": [
    {
      "uri": "data:application/octet-stream;base64,",
      "byteLength": 409352
    }
  ],
  "bufferViews": [
    { "buffer": 0, "byteOffset": 0, "byteLength": 31488, "target": 34963 },
    {
      "buffer": 0,
      "byteOffset": 31492,
      "byteLength": 377856,
      "byteStride": 24,
      "target": 34962
    }
  ],
  "materials": [
    {
      "name": "lambert2SG.001",
      "pbrMetallicRoughness": {
        "baseColorFactor": [1, 1, 1, 1],
        "metallicFactor": 0.5,
        "roughnessFactor": 0.5
      },
      "emissiveFactor": [0, 0, 0],
      "alphaMode": "OPAQUE",
      "doubleSided": false
    }
  ],
  "meshes": [
    {
      "primitives": [
        {
          "attributes": { "POSITION": 1, "COLOR_0": 2 },
          "indices": 0,
          "material": 0,
          "mode": 4
        }
      ]
    }
  ],
  "nodes": [
    { "mesh": 0, "name": "Mesh_Mesh_head_geo.001_lambert2SG.001" },
    {
      "children": [0],
      "matrix": [
        1, 0, 0, 0, 0, 2.220446049250313e-16, -1, 0, 0, 1,
        2.220446049250313e-16, 0, 0, 0, 0, 1
      ],
      "name": "Node #1"
    }
  ],
  "scene": 0,
  "scenes": [{ "nodes": [1] }]
}
